# xmcd
#
# Track frame offsets:
#	150
#	13093
#	27805
#	38038
#	55630
#	80070
#	93725
#	111255
#	124810
#	143983
#	145960
#	157845
#	163080
#	177688
#	191853
#
# Disc length: 2751 seconds
#
# Revision: 0
# Processed by: cddbd v1.4PL0 Copyright (c) Steve Scherf et al.
# Submitted via: MusicWizard 6.0.1
#
DISCID=d40abd0f
DTITLE=Paul Kennerley - White Mansions - A Tale From The American Civil War 1861-1865
DYEAR=1978
DGENRE=Country
TTITLE0=Story To Tell (The Preface): Polly
TTITLE1=Dixie, Hold On: The Drifter
TTITLE2=Join Around The Flag: Mathew
TTITLE3=White Trash: Caleb
TTITLE4=The Last Dance and The Kentucky Racehorse: Mathew and Polly
TTITLE5=Southern Boys: Caleb
TTITLE6=The Union Mare and The Confederate Grey: The Drifter
TTITLE7=No One Would Believe A Summer Could Be So Damn Cold: Mathew
TTITLE8=The Southland's Bleeding: The Drifter
TTITLE9=Bring Up The Twelve Pounders: Mathew
TTITLE10=They Laid Waste To Our Land: Caleb, Mathew and The Drifter
TTITLE11=Praise The Lord: The Slaves
TTITLE12=The King Has Called Me Home: Caleb
TTITLE13=Bad Man: Mathew
TTITLE14=Dixie, Now You're Done: The Drifter
EXTD=(c)1978 A&M Records SP 6004.\nWritten by Paul Kennerley (Track 4 Kennerley/Leadon)
EXTT0=
EXTT1=
EXTT2=
EXTT3=
EXTT4=
EXTT5=
EXTT6=
EXTT7=
EXTT8=
EXTT9=
EXTT10=
EXTT11=
EXTT12=
EXTT13=
EXTT14=
PLAYORDER=
